<svg xmlns="http://www.w3.org/2000/svg" viewBox="0 0 1024 1024" role="img" aria-label="Pickleball paddle app icon">
  <defs>
    <linearGradient id="bg" x1="0" x2="1" y1="0" y2="1">
      <stop offset="0" stop-color="#13233f"/>
      <stop offset="1" stop-color="#07111f"/>
    </linearGradient>
    <linearGradient id="paddle" x1="0" x2="1" y1="0" y2="1">
      <stop offset="0" stop-color="#5eead4"/>
      <stop offset="1" stop-color="#0f766e"/>
    </linearGradient>
    <linearGradient id="ball" x1="0" x2="1" y1="0" y2="1">
      <stop offset="0" stop-color="#ecfccb"/>
      <stop offset="1" stop-color="#bef264"/>
    </linearGradient>
    <filter id="shadow" x="-20%" y="-20%" width="140%" height="140%">
      <feDropShadow dx="0" dy="26" stdDeviation="30" flood-color="#000000" flood-opacity="0.35"/>
    </filter>
  </defs>
  <rect width="1024" height="1024" rx="220" fill="url(#bg)"/>
  <circle cx="212" cy="188" r="90" fill="#b9f34a" opacity="0.16"/>
  <circle cx="844" cy="794" r="130" fill="#5eead4" opacity="0.12"/>
  <g transform="rotate(-24 512 512)" filter="url(#shadow)">
    <rect x="450" y="565" width="124" height="322" rx="54" fill="#e2e8f0"/>
    <rect x="474" y="610" width="76" height="236" rx="36" fill="#1e293b"/>
    <rect x="286" y="150" width="452" height="548" rx="190" fill="url(#paddle)"/>
    <path d="M354 268c62-78 207-114 312-21" fill="none" stroke="#ccfbf1" stroke-width="38" stroke-linecap="round" opacity="0.7"/>
    <circle cx="416" cy="410" r="22" fill="#082f49" opacity="0.55"/>
    <circle cx="512" cy="350" r="22" fill="#082f49" opacity="0.55"/>
    <circle cx="608" cy="410" r="22" fill="#082f49" opacity="0.55"/>
    <circle cx="470" cy="508" r="22" fill="#082f49" opacity="0.55"/>
    <circle cx="556" cy="508" r="22" fill="#082f49" opacity="0.55"/>
  </g>
  <g filter="url(#shadow)">
    <circle cx="722" cy="284" r="96" fill="url(#ball)"/>
    <circle cx="684" cy="255" r="12" fill="#334155" opacity="0.45"/>
    <circle cx="735" cy="238" r="12" fill="#334155" opacity="0.45"/>
    <circle cx="766" cy="283" r="12" fill="#334155" opacity="0.45"/>
    <circle cx="711" cy="318" r="12" fill="#334155" opacity="0.45"/>
    <circle cx="772" cy="341" r="12" fill="#334155" opacity="0.45"/>
  </g>
</svg>
