<svg xmlns="http://www.w3.org/2000/svg" viewBox="0 0 1024 1024" role="img" aria-label="Pickleball paddle app icon">
  <defs>
    <linearGradient id="bg" x1="0" x2="1" y1="0" y2="1">
      <stop offset="0" stop-color="#183153"/>
      <stop offset="0.52" stop-color="#0f1f36"/>
      <stop offset="1" stop-color="#06111f"/>
    </linearGradient>
    <linearGradient id="paddleFace" x1="0.18" x2="0.86" y1="0.08" y2="0.94">
      <stop offset="0" stop-color="#ccfbf1"/>
      <stop offset="0.35" stop-color="#5eead4"/>
      <stop offset="1" stop-color="#0f766e"/>
    </linearGradient>
    <linearGradient id="edge" x1="0" x2="1" y1="0" y2="1">
      <stop offset="0" stop-color="#f8fafc"/>
      <stop offset="1" stop-color="#94a3b8"/>
    </linearGradient>
    <linearGradient id="grip" x1="0" x2="1" y1="0" y2="1">
      <stop offset="0" stop-color="#334155"/>
      <stop offset="1" stop-color="#0f172a"/>
    </linearGradient>
    <linearGradient id="ball" x1="0" x2="1" y1="0" y2="1">
      <stop offset="0" stop-color="#f7fee7"/>
      <stop offset="1" stop-color="#bef264"/>
    </linearGradient>
    <filter id="shadow" x="-22%" y="-22%" width="144%" height="144%">
      <feDropShadow dx="0" dy="26" stdDeviation="30" flood-color="#000000" flood-opacity="0.34"/>
    </filter>
  </defs>

  <rect width="1024" height="1024" rx="230" fill="url(#bg)"/>
  <circle cx="200" cy="182" r="104" fill="#b9f34a" opacity="0.16"/>
  <circle cx="818" cy="812" r="150" fill="#5eead4" opacity="0.12"/>
  <path d="M116 760c216-88 374-66 524 66 81 71 160 93 270 54" fill="none" stroke="#5eead4" stroke-width="34" stroke-linecap="round" opacity="0.18"/>

  <g transform="rotate(-28 520 540)" filter="url(#shadow)">
    <rect x="462" y="600" width="132" height="312" rx="58" fill="url(#edge)"/>
    <rect x="486" y="630" width="84" height="252" rx="38" fill="url(#grip)"/>
    <path d="M486 678h84M486 738h84M486 798h84" stroke="#64748b" stroke-width="18" stroke-linecap="round" opacity="0.68"/>
    <rect x="274" y="116" width="508" height="578" rx="214" fill="url(#edge)"/>
    <rect x="308" y="150" width="440" height="510" rx="184" fill="url(#paddleFace)"/>
    <path d="M384 286c84-94 238-112 332-28" fill="none" stroke="#f0fdfa" stroke-width="36" stroke-linecap="round" opacity="0.7"/>
    <g fill="#06263d" opacity="0.52">
      <circle cx="432" cy="366" r="24"/>
      <circle cx="528" cy="316" r="24"/>
      <circle cx="624" cy="366" r="24"/>
      <circle cx="396" cy="478" r="24"/>
      <circle cx="528" cy="474" r="24"/>
      <circle cx="660" cy="478" r="24"/>
      <circle cx="466" cy="568" r="24"/>
      <circle cx="590" cy="568" r="24"/>
    </g>
  </g>

  <g filter="url(#shadow)">
    <circle cx="760" cy="236" r="96" fill="url(#ball)"/>
    <g fill="#334155" opacity="0.42">
      <circle cx="722" cy="206" r="12"/>
      <circle cx="774" cy="190" r="12"/>
      <circle cx="810" cy="235" r="12"/>
      <circle cx="742" cy="270" r="12"/>
      <circle cx="804" cy="300" r="12"/>
    </g>
  </g>
</svg>
